<mxfile host="ecosystem.cloudogu.com" agent="Mozilla/5.0 (X11; Linux x86_64; rv:141.0) Gecko/20100101 Firefox/141.0" version="24.7.17">
  <diagram name="Page-1" id="58cdce13-f638-feb5-8d6f-7d28b1aa9fa0">
    <mxGraphModel dx="1434" dy="913" grid="1" gridSize="10" guides="1" tooltips="1" connect="1" arrows="1" fold="1" page="1" pageScale="1" pageWidth="1100" pageHeight="850" background="none" math="0" shadow="0">
      <root>
        <mxCell id="0" />
        <mxCell id="1" parent="0" />
        <mxCell id="382b91b5511bd0f7-1" value="" style="ellipse;html=1;shape=startState;fillColor=#000000;strokeColor=#ff0000;rounded=1;shadow=0;comic=0;labelBackgroundColor=none;fontFamily=Verdana;fontSize=12;fontColor=#000000;align=center;direction=south;" parent="1" vertex="1">
          <mxGeometry x="130" y="135" width="30" height="30" as="geometry" />
        </mxCell>
        <mxCell id="BBAbMBos5AcET1pFvo9Y-4" style="edgeStyle=orthogonalEdgeStyle;rounded=0;orthogonalLoop=1;jettySize=auto;html=1;" edge="1" parent="1" source="382b91b5511bd0f7-5" target="382b91b5511bd0f7-9">
          <mxGeometry relative="1" as="geometry" />
        </mxCell>
        <mxCell id="BBAbMBos5AcET1pFvo9Y-5" value="&lt;div&gt;status code ist nicht 401&lt;/div&gt;&lt;div&gt;oder ist in 3xx-Range&lt;/div&gt;" style="edgeLabel;html=1;align=center;verticalAlign=middle;resizable=0;points=[];" vertex="1" connectable="0" parent="BBAbMBos5AcET1pFvo9Y-4">
          <mxGeometry x="-0.05" y="1" relative="1" as="geometry">
            <mxPoint as="offset" />
          </mxGeometry>
        </mxCell>
        <mxCell id="BBAbMBos5AcET1pFvo9Y-10" style="edgeStyle=orthogonalEdgeStyle;rounded=0;orthogonalLoop=1;jettySize=auto;html=1;" edge="1" parent="1" source="382b91b5511bd0f7-5" target="BBAbMBos5AcET1pFvo9Y-9">
          <mxGeometry relative="1" as="geometry" />
        </mxCell>
        <mxCell id="BBAbMBos5AcET1pFvo9Y-14" value="&lt;div&gt;andere&amp;nbsp;&lt;/div&gt;&lt;div&gt;status codes&lt;/div&gt;" style="edgeLabel;html=1;align=center;verticalAlign=middle;resizable=0;points=[];" vertex="1" connectable="0" parent="BBAbMBos5AcET1pFvo9Y-10">
          <mxGeometry x="-0.0889" y="1" relative="1" as="geometry">
            <mxPoint as="offset" />
          </mxGeometry>
        </mxCell>
        <mxCell id="382b91b5511bd0f7-5" value="untersuche ResponseCode" style="rounded=1;whiteSpace=wrap;html=1;arcSize=24;fillColor=#ffffc0;strokeColor=#ff0000;shadow=0;comic=0;labelBackgroundColor=none;fontFamily=Verdana;fontSize=12;fontColor=#000000;align=center;" parent="1" vertex="1">
          <mxGeometry x="440" y="490" width="120" height="60" as="geometry" />
        </mxCell>
        <mxCell id="BBAbMBos5AcET1pFvo9Y-1" style="edgeStyle=orthogonalEdgeStyle;rounded=0;orthogonalLoop=1;jettySize=auto;html=1;fillColor=#e51400;strokeColor=#B20000;" edge="1" parent="1" source="382b91b5511bd0f7-6" target="382b91b5511bd0f7-7">
          <mxGeometry relative="1" as="geometry" />
        </mxCell>
        <mxCell id="382b91b5511bd0f7-6" value="Request noch nicht gehandled" style="rounded=1;whiteSpace=wrap;html=1;arcSize=24;fillColor=#ffffc0;strokeColor=#ff0000;shadow=0;comic=0;labelBackgroundColor=none;fontFamily=Verdana;fontSize=12;fontColor=#000000;align=center;" parent="1" vertex="1">
          <mxGeometry x="240" y="120" width="120" height="60" as="geometry" />
        </mxCell>
        <mxCell id="BBAbMBos5AcET1pFvo9Y-3" style="edgeStyle=orthogonalEdgeStyle;rounded=0;orthogonalLoop=1;jettySize=auto;html=1;" edge="1" parent="1" source="382b91b5511bd0f7-7" target="382b91b5511bd0f7-10">
          <mxGeometry relative="1" as="geometry" />
        </mxCell>
        <mxCell id="382b91b5511bd0f7-7" value="&lt;div&gt;&amp;lt;&amp;lt;Buffer&amp;gt;&amp;gt;&lt;/div&gt;&lt;div&gt;erzeuge Zwischen-RequestWriter&lt;/div&gt;" style="rounded=1;whiteSpace=wrap;html=1;arcSize=24;fillColor=#ffffc0;strokeColor=#ff0000;shadow=0;comic=0;labelBackgroundColor=none;fontFamily=Verdana;fontSize=12;fontColor=#000000;align=center;" parent="1" vertex="1">
          <mxGeometry x="440" y="200" width="120" height="60" as="geometry" />
        </mxCell>
        <mxCell id="BBAbMBos5AcET1pFvo9Y-7" style="edgeStyle=orthogonalEdgeStyle;rounded=0;orthogonalLoop=1;jettySize=auto;html=1;" edge="1" parent="1" source="382b91b5511bd0f7-9" target="BBAbMBos5AcET1pFvo9Y-6">
          <mxGeometry relative="1" as="geometry" />
        </mxCell>
        <mxCell id="BBAbMBos5AcET1pFvo9Y-20" value="beende Proxy-Request" style="edgeLabel;html=1;align=center;verticalAlign=middle;resizable=0;points=[];" vertex="1" connectable="0" parent="BBAbMBos5AcET1pFvo9Y-7">
          <mxGeometry x="-0.14" y="-1" relative="1" as="geometry">
            <mxPoint as="offset" />
          </mxGeometry>
        </mxCell>
        <mxCell id="382b91b5511bd0f7-9" value="schreibe Original-RequestWriter mit Zwischen-Request-Inhalt, beende" style="rounded=1;whiteSpace=wrap;html=1;arcSize=24;fillColor=#ffffc0;strokeColor=#ff0000;shadow=0;comic=0;labelBackgroundColor=none;fontFamily=Verdana;fontSize=12;fontColor=#000000;align=center;" parent="1" vertex="1">
          <mxGeometry x="770" y="490" width="120" height="60" as="geometry" />
        </mxCell>
        <mxCell id="BBAbMBos5AcET1pFvo9Y-8" style="edgeStyle=orthogonalEdgeStyle;rounded=0;orthogonalLoop=1;jettySize=auto;html=1;" edge="1" parent="1" source="382b91b5511bd0f7-10" target="382b91b5511bd0f7-5">
          <mxGeometry relative="1" as="geometry" />
        </mxCell>
        <mxCell id="382b91b5511bd0f7-10" value="fÃ¼hre neuen Request gegen SonarQube durch" style="rounded=1;whiteSpace=wrap;html=1;arcSize=24;fillColor=#ffffc0;strokeColor=#ff0000;shadow=0;comic=0;labelBackgroundColor=none;fontFamily=Verdana;fontSize=12;fontColor=#000000;align=center;" parent="1" vertex="1">
          <mxGeometry x="440" y="365" width="120" height="60" as="geometry" />
        </mxCell>
        <mxCell id="2a3bc250acf0617d-9" style="edgeStyle=orthogonalEdgeStyle;html=1;labelBackgroundColor=none;endArrow=open;endSize=8;strokeColor=#ff0000;fontFamily=Verdana;fontSize=12;align=left;" parent="1" source="382b91b5511bd0f7-1" target="382b91b5511bd0f7-6" edge="1">
          <mxGeometry relative="1" as="geometry" />
        </mxCell>
        <mxCell id="BBAbMBos5AcET1pFvo9Y-6" value="" style="ellipse;html=1;shape=startState;rounded=1;shadow=0;comic=0;labelBackgroundColor=none;fontFamily=Verdana;fontSize=12;align=center;direction=south;" vertex="1" parent="1">
          <mxGeometry x="1020" y="505" width="30" height="30" as="geometry" />
        </mxCell>
        <mxCell id="BBAbMBos5AcET1pFvo9Y-12" style="edgeStyle=orthogonalEdgeStyle;rounded=0;orthogonalLoop=1;jettySize=auto;html=1;entryX=0;entryY=0.5;entryDx=0;entryDy=0;" edge="1" parent="1" source="BBAbMBos5AcET1pFvo9Y-9" target="BBAbMBos5AcET1pFvo9Y-11">
          <mxGeometry relative="1" as="geometry">
            <Array as="points">
              <mxPoint x="180" y="670" />
              <mxPoint x="180" y="230" />
            </Array>
          </mxGeometry>
        </mxCell>
        <mxCell id="BBAbMBos5AcET1pFvo9Y-15" value="CAS liefert Auth-Infos" style="edgeLabel;html=1;align=center;verticalAlign=middle;resizable=0;points=[];" vertex="1" connectable="0" parent="BBAbMBos5AcET1pFvo9Y-12">
          <mxGeometry x="-0.5146" relative="1" as="geometry">
            <mxPoint as="offset" />
          </mxGeometry>
        </mxCell>
        <mxCell id="BBAbMBos5AcET1pFvo9Y-16" style="edgeStyle=orthogonalEdgeStyle;rounded=0;orthogonalLoop=1;jettySize=auto;html=1;entryX=0.5;entryY=1;entryDx=0;entryDy=0;" edge="1" parent="1" source="BBAbMBos5AcET1pFvo9Y-9" target="382b91b5511bd0f7-9">
          <mxGeometry relative="1" as="geometry" />
        </mxCell>
        <mxCell id="BBAbMBos5AcET1pFvo9Y-17" value="Request ist unauthentifiziert" style="edgeLabel;html=1;align=center;verticalAlign=middle;resizable=0;points=[];" vertex="1" connectable="0" parent="BBAbMBos5AcET1pFvo9Y-16">
          <mxGeometry x="-0.7187" y="-2" relative="1" as="geometry">
            <mxPoint x="65" y="-2" as="offset" />
          </mxGeometry>
        </mxCell>
        <mxCell id="BBAbMBos5AcET1pFvo9Y-9" value="frage CAS nach Authentifizierung" style="rounded=1;whiteSpace=wrap;html=1;arcSize=24;fillColor=#ffffc0;strokeColor=#ff0000;shadow=0;comic=0;labelBackgroundColor=none;fontFamily=Verdana;fontSize=12;fontColor=#000000;align=center;" vertex="1" parent="1">
          <mxGeometry x="440" y="640" width="120" height="60" as="geometry" />
        </mxCell>
        <mxCell id="BBAbMBos5AcET1pFvo9Y-13" style="edgeStyle=orthogonalEdgeStyle;rounded=0;orthogonalLoop=1;jettySize=auto;html=1;entryX=0;entryY=0.5;entryDx=0;entryDy=0;" edge="1" parent="1" source="BBAbMBos5AcET1pFvo9Y-11" target="382b91b5511bd0f7-7">
          <mxGeometry relative="1" as="geometry" />
        </mxCell>
        <mxCell id="BBAbMBos5AcET1pFvo9Y-11" value="reichere Request mit X-Auth-Headern an" style="rounded=1;whiteSpace=wrap;html=1;arcSize=24;fillColor=#ffffc0;strokeColor=#ff0000;shadow=0;comic=0;labelBackgroundColor=none;fontFamily=Verdana;fontSize=12;fontColor=#000000;align=center;" vertex="1" parent="1">
          <mxGeometry x="240" y="200" width="120" height="60" as="geometry" />
        </mxCell>
        <mxCell id="BBAbMBos5AcET1pFvo9Y-18" value="Szenario: Cockpit-Proxyticket oder CAS-Browser-Request oder REST-Request mit Token" style="text;html=1;align=center;verticalAlign=middle;whiteSpace=wrap;rounded=0;" vertex="1" parent="1">
          <mxGeometry x="60" y="40" width="750" height="30" as="geometry" />
        </mxCell>
      </root>
    </mxGraphModel>
  </diagram>
</mxfile>
